# xmcd CD database file
#
# Track frame offsets:
#	150
#	16822
#	32690
#	50337
#	62977
#	79010
#	96232
#	128457
#	159542
#	172455
#	192187
#	210627
#	247922
#	265320
#	311120
#
# Disc length: 4440 seconds
#
# Revision: 0
# Processed by: cddbd v1.5PL3 Copyright (c) Steve Scherf et al.
# Submitted via: CDex 1.51
#
DISCID=cb11560f
DTITLE=N.E.R.D - Fly or Die
DYEAR=2004
DGENRE=Rock/Hip-Hop
TTITLE0=Don't It About It
TTITLE1=Fly Or Die
TTITLE2=Jump feat.Joel Madden&Benji Madden
TTITLE3=Backseat Love
TTITLE4=She Wants To Move
TTITLE5=Breakout
TTITLE6=Wonderful Place
TTITLE7=Drill Sergeant
TTITLE8=Thrasher
TTITLE9=Maybe
TTITLE10=The Way She Dances
TTITLE11=Chariot Of Fire
TTITLE12=She Wants To Move [Mac&Toolz Remix]
TTITLE13=She Wants To Move [DFA Remix]
TTITLE14=date
EXTD=YEAR: 2004
EXTT0=
EXTT1=
EXTT2=
EXTT3=
EXTT4=
EXTT5=
EXTT6=
EXTT7=
EXTT8=
EXTT9=
EXTT10=
EXTT11=
EXTT12=
EXTT13=
EXTT14=
PLAYORDER=
